HIERARCHY
ROOT Hips
{
	OFFSET 0.000000 0.000000 0.000000 
	CHANNELS 6 Xposition Yposition Zposition Zrotation Xrotation Yrotation
	JOINT Spine
	{
		OFFSET -0.000000 8.061080 0.000000 
		CHANNELS 3 Zrotation Xrotation Yrotation
		JOINT Spine1
		{
			OFFSET -0.001044 16.775810 -0.001851 
			CHANNELS 3 Zrotation Xrotation Yrotation
			JOINT Neck
			{
				OFFSET -0.000000 22.498800 0.000000 
				CHANNELS 3 Zrotation Xrotation Yrotation
				JOINT Head
				{
					OFFSET -0.000000 15.237400 1.966120 
					CHANNELS 3 Zrotation Xrotation Yrotation
					End Site
					{
						OFFSET -0.000000 19.661222 0.000000 
					}
				}
			}
			JOINT LeftShoulder
			{
				OFFSET 3.894670 16.042299 -0.398189 
				CHANNELS 3 Zrotation Xrotation Yrotation
				JOINT LeftArm
				{
					OFFSET 19.709600 0.000000 0.000000 
					CHANNELS 3 Zrotation Xrotation Yrotation
					JOINT LeftForeArm
					{
						OFFSET 25.566900 0.000000 0.000000 
						CHANNELS 3 Zrotation Xrotation Yrotation
						JOINT LeftHand
						{
							OFFSET 28.126812 -0.000627 -0.000294 
							CHANNELS 3 Zrotation Xrotation Yrotation
							End Site
							{
								OFFSET 14.745918 0.000000 0.000000 
							}
						}
					}
				}
			}
			JOINT RightShoulder
			{
				OFFSET -3.930780 16.042299 -0.398189 
				CHANNELS 3 Zrotation Xrotation Yrotation
				JOINT RightArm
				{
					OFFSET -19.709600 0.000000 0.000000 
					CHANNELS 3 Zrotation Xrotation Yrotation
					JOINT RightForeArm
					{
						OFFSET -25.566900 0.000000 0.000000 
						CHANNELS 3 Zrotation Xrotation Yrotation
						JOINT RightHand
						{
							OFFSET -34.053413 -0.148630 0.434597 
							CHANNELS 3 Zrotation Xrotation Yrotation
							End Site
							{
								OFFSET -14.745918 0.000000 0.000000 
							}
						}
					}
				}
			}
		}
	}
	JOINT LeftUpLeg
	{
		OFFSET 9.830590 0.000000 0.000000 
		CHANNELS 3 Zrotation Xrotation Yrotation
		JOINT LeftLeg
		{
			OFFSET -0.000000 -46.474800 0.000000 
			CHANNELS 3 Zrotation Xrotation Yrotation
			JOINT LeftFoot
			{
				OFFSET -0.000000 -30.290499 0.000000 
				CHANNELS 3 Zrotation Xrotation Yrotation
				JOINT LeftToeBase
				{
					OFFSET -0.000000 -6.389880 14.745900 
					CHANNELS 3 Zrotation Xrotation Yrotation
					End Site
					{
						OFFSET -0.000000 0.000000 3.932244 
					}
				}
			}
		}
	}
	JOINT RightUpLeg
	{
		OFFSET -9.830590 0.000000 0.000000 
		CHANNELS 3 Zrotation Xrotation Yrotation
		JOINT RightLeg
		{
			OFFSET -0.000000 -46.474800 0.000000 
			CHANNELS 3 Zrotation Xrotation Yrotation
			JOINT RightFoot
			{
				OFFSET -0.000000 -30.290499 0.000000 
				CHANNELS 3 Zrotation Xrotation Yrotation
				JOINT RightToeBase
				{
					OFFSET -0.000000 -6.389880 14.745900 
					CHANNELS 3 Zrotation Xrotation Yrotation
					End Site
					{
						OFFSET -0.000000 0.000000 3.932244 
					}
				}
			}
		}
	}
}
MOTION
Frames: 7
Frame Time: 0.010000
-0.878459 84.092957 0.341523 0.241629 7.472017 -3.067032 1.190473 -14.293599 -3.004468 -1.084761 3.050823 -1.022288 0.085826 4.345801 -0.897052 7.660927 15.193840 -2.890589 6.530084 9.028604 -3.806975 -67.786392 36.536854 -28.593647 -13.819265 -2.642854 -3.527001 5.416021 -2.883961 3.923439 -9.790755 8.418328 -9.611974 91.968803 -5.947017 -1.446202 3.506222 15.395869 24.860943 0.758197 14.579438 -11.053667 4.531437 -3.205976 -8.537286 -1.121549 -4.465333 -3.361137 -1.878276 -6.759829 18.987280 0.000000 0.000000 0.000000 -7.754181 -5.782512 -6.748721 6.876281 6.191289 -22.885883 3.931564 -12.822138 33.012177 0.000000 0.000000 0.000000 
-0.893255 84.092354 0.332012 0.270292 7.486979 -3.105626 1.181668 -14.299316 -2.992528 -1.098476 3.059085 -1.017601 0.103670 4.195401 -0.843197 7.687444 15.408500 -2.852928 6.554025 9.027221 -3.834201 -67.814148 36.438637 -28.564253 -13.858415 -2.590810 -3.546450 5.433389 -2.834463 3.932839 -9.766260 8.413439 -9.660459 91.966530 -5.940505 -1.439935 3.494598 15.394811 24.857988 0.816463 14.576297 -11.062275 4.504570 -3.261840 -8.583843 -1.067796 -4.332687 -3.287884 -1.954687 -6.877966 18.962862 0.000000 0.000000 0.000000 -7.770404 -5.843377 -6.652568 6.882789 6.253034 -22.920128 3.925117 -12.864429 32.990604 0.000000 0.000000 0.000000 
-0.909750 84.091682 0.322352 0.300240 7.502556 -3.147458 1.175711 -14.306707 -2.979264 -1.117482 3.065459 -1.012351 0.104580 4.122368 -0.745594 7.756039 15.458606 -2.773230 6.581985 9.029879 -3.868138 -67.841980 36.334690 -28.534437 -13.898801 -2.538277 -3.566673 5.451331 -2.784615 3.942155 -9.739668 8.413223 -9.706490 91.967010 -5.932766 -1.432132 3.479383 15.391409 24.856758 0.877966 14.571304 -11.072307 4.477181 -3.321039 -8.630687 -1.010703 -4.189153 -3.212703 -2.037426 -7.006380 18.936409 0.000000 0.000000 0.000000 -7.786657 -5.907430 -6.552447 6.889678 6.318626 -22.954416 3.918926 -12.908992 32.968571 0.000000 0.000000 0.000000 
-0.928076 84.090942 0.312546 0.331436 7.518705 -3.192780 1.173860 -14.312038 -2.964422 -1.141938 3.073814 -1.006630 0.125617 3.963528 -0.687602 7.789013 15.679978 -2.733177 6.611650 9.027840 -3.898536 -67.866241 36.235390 -28.507622 -13.939472 -2.486069 -3.587154 5.469323 -2.735176 3.950854 -9.710576 8.407504 -9.761795 91.967773 -5.925564 -1.424852 3.464835 15.392563 24.854839 0.942217 14.570465 -11.084078 4.449433 -3.383660 -8.677683 -0.950441 -4.034389 -3.135768 -2.126653 -7.145263 18.908184 0.000000 0.000000 0.000000 -7.802729 -5.973714 -6.438122 6.898244 6.384621 -22.997952 3.912096 -12.955163 32.945335 0.000000 0.000000 0.000000 
-0.948360 84.090141 0.302597 0.363939 7.535453 -3.241832 1.175749 -14.318293 -2.948178 -1.172389 3.080957 -1.000418 0.138025 3.843328 -0.602907 7.847181 15.814790 -2.668010 6.644966 9.028188 -3.933696 -67.889214 36.133549 -28.481684 -13.980607 -2.434252 -3.608015 5.487388 -2.686228 3.959129 -9.679423 8.404592 -9.816728 91.971443 -5.917526 -1.416414 3.447179 15.392793 24.854422 1.009750 14.569101 -11.097602 4.421246 -3.449908 -8.724599 -0.886946 -3.867949 -3.057071 -2.222203 -7.294440 18.878017 0.000000 0.000000 0.000000 -7.818533 -6.042171 -6.308140 6.908532 6.450700 -23.051695 3.904894 -13.002973 32.920628 0.000000 0.000000 0.000000 
-0.970732 84.089272 0.292519 0.397766 7.552746 -3.294577 1.181880 -14.323679 -2.930521 -1.208954 3.088445 -0.993801 0.152223 3.714228 -0.517950 7.908504 15.961239 -2.604066 6.681023 9.027098 -3.969025 -67.909180 36.033737 -28.458088 -14.021928 -2.383243 -3.629192 5.505584 -2.638137 3.966852 -9.645653 8.399966 -9.876409 91.976463 -5.909377 -1.407719 3.428501 15.395224 24.854479 1.080375 14.569817 -11.113104 4.392804 -3.519835 -8.771353 -0.820485 -3.689605 -2.977119 -2.324172 -7.454087 18.846529 0.000000 0.000000 0.000000 -7.834114 -6.113048 -6.166395 6.920449 6.517851 -23.112242 3.897110 -13.052458 32.895042 0.000000 0.000000 0.000000 
-0.995338 84.088348 0.282303 0.432885 7.570668 -3.351390 1.192454 -14.329552 -2.911592 -1.251822 3.095073 -0.986700 0.169181 3.579115 -0.429764 7.971202 16.114389 -2.537429 6.720089 9.027420 -4.007814 -67.926392 35.933823 -28.436348 -14.063258 -2.333513 -3.650567 5.523719 -2.591426 3.973899 -9.610052 8.397141 -9.936797 91.984779 -5.900543 -1.397982 3.406665 15.397586 24.855906 1.154442 14.570829 -11.130665 4.364237 -3.593587 -8.817740 -0.751621 -3.499372 -2.895345 -2.431746 -7.623472 18.813494 0.000000 0.000000 0.000000 -7.849206 -6.186265 -6.010852 6.933983 6.585566 -23.180922 3.888906 -13.103676 32.868126 0.000000 0.000000 0.000000 
